<?xml version="1.0" encoding="UTF-8"?>
<svg width="720" height="200" version="1.1" viewBox="0 0 720 200" xmlns="http://www.w3.org/2000/svg"><title>zomato_logo</title><desc>Created with Sketch.</desc><g fill="none" fill-rule="evenodd"><g id="zomato_logo"><g id="Logo"><rect id="Rectangle" y="1.4643" width="720" height="200" rx="28.8" fill="#50bebf" stroke-width=".52705"/><path id="Shape" d="m142.62 152.5v-15.825h-51.777l51.777-58.515v-13.27h-74.842l2.14e-4 15.828h50.003l-51.777 58.515v13.267zm56.84 1.918c27.107 0 47.107-20.621 47.107-45.562v-0.31966c0-25.102-19.84-45.405-46.777-45.405-27.096 0-47.103 20.784-47.103 45.725v0.31966c0 24.941 19.836 45.242 46.772 45.242zm0.33031-16.784c-16.132 0-27.746-13.11-27.746-28.778v-0.31966c0-15.509 10.804-28.619 27.416-28.619 16.132 0 27.746 13.27 27.746 28.939v0.31966c0 15.508-10.804 28.458-27.416 28.458zm63.942 14.866h19.35v-49.4c0-13.75 8.066-22.382 19.68-22.382s18.391 7.6739 18.391 21.583v50.199h19.51v-49.56c0-14.389 8.2258-22.223 19.52-22.223 11.614 0 18.551 7.6739 18.551 21.903v49.879h19.361v-55.635c0-21.423-11.785-33.733-31.135-33.733-13.713 0-22.909 6.2344-30.005 15.508-4.6776-9.2733-13.703-15.508-26.606-15.508-13.713 0-21.46 7.3543-27.267 15.348v-13.59h-19.35zm186.36-12.308c-9.8348 0-17.741-4.9568-17.741-13.75v-0.31966c0-9.2733 7.9062-15.029 21.289-15.029 8.3857 0 15.493 1.5994 20.81 3.5184v6.3942c0 11.352-10.485 19.186-24.358 19.186zm-5.1571 14.066c13.713 0 23.069-5.7538 29.036-12.947v11.189h18.87v-52.118c0-11.511-2.9089-20.624-9.3553-26.859-6.2973-6.2354-16.132-9.7527-29.195-9.7527-14.033 0-23.548 2.878-33.234 7.1944l5.1678 15.028c8.066-3.3575 15.482-5.4352 25.487-5.4352 14.512 0 22.419 6.8748 22.419 19.664v2.2387c-6.9366-2.2387-14.193-3.6771-24.198-3.6771-21.609 0-36.611 9.2733-36.611 28.138v0.31966c0 17.586 15.003 27.016 31.614 27.016zm97.655-0.31966c7.416 0 12.904-1.5983 17.901-4.3154v-15.826c-4.0277 1.919-8.066 3.0378-12.584 3.0378-7.0964 0-11.284-3.3575-11.284-11.351v-43.967h24.187v-16.628h-24.187v-24.301h-19.361v24.301h-11.454v16.628h11.454v47.005c0 19.024 10.485 25.417 25.328 25.417zm119.68-45.082v-0.31966c0-25.102-19.84-45.405-46.777-45.405-27.096 0-47.096 20.784-47.096 45.725v0.31966c0 24.941 19.84 45.242 46.777 45.242 27.096 0 47.096-20.621 47.096-45.562zm-46.777 28.778c-16.132 0-27.746-13.11-27.746-28.778v-0.31966c0-15.509 10.815-28.619 27.427-28.619 16.132 0 27.736 13.27 27.736 28.939v0.31966c0 15.508-10.804 28.458-27.416 28.458z" fill="#fff"/></g></g></g></svg>
